# File created by Blade
# Date/Time:  Wed Jan 21 16:27:40 2015
# Frame Rate: 120.000 fps
#------------------------------------------------------
:FULLY-SPECIFIED
:DEGREES
716
root 16.755292 9.963462 -20.648017 -190.908267 32.220072 -204.115920
Spine 48.285871 -20.302522 -8.528003
Head 0.966236 -26.656028 12.406296
LeftShoulder 17.441818 -35.501213 1.633601
LeftArm 26.319611 39.976824 -67.537330
LeftForeArm -22.347304 -0.000000 14.991194
LeftHand -10.000237 -0.000000 7.384338
LeftHandThumb1 -26.253704 0.000000 33.147579
RightShoulder -2.615879 -10.579472 11.202650
RightArm 29.149955 -8.310564 63.684774
RightForeArm -37.972690 -0.000000 34.059810
RightHand -5.503582 -0.000000 -28.108106
RightHandThumb1 -24.326973 -0.000000 -32.862282
LeftUpLeg 18.646937 -7.453931 33.427453
LeftLeg 43.479389 -0.000000 -0.000000
LeftFoot -5.506124 54.726018 -7.556598
LeftToeBase 19.205130 -0.000000 -0.000000
RightUpLeg -97.700959 -39.754956 11.406364
RightLeg -7.287219 -0.000000 0.000000
RightFoot -4.691842 -42.706679 9.233497
RightToeBase 5.667839 -0.000000 -0.000000
717
root 16.766521 9.984081 -20.653741 -190.754033 32.158676 -204.012304
Spine 48.254069 -20.438199 -8.434768
Head 1.169818 -26.792127 12.432924
LeftShoulder 17.508714 -35.522729 1.616894
LeftArm 26.288905 40.037269 -67.540602
LeftForeArm -22.387527 -0.000000 14.967311
LeftHand -10.020182 -0.000000 7.436501
LeftHandThumb1 -26.253704 0.000000 33.147579
RightShoulder -2.584806 -10.627531 11.294596
RightArm 29.278666 -8.288522 63.493524
RightForeArm -37.929523 -0.000000 33.956496
RightHand -5.549428 -0.000000 -28.032937
RightHandThumb1 -24.326973 -0.000000 -32.862282
LeftUpLeg 18.618835 -7.438628 33.529938
LeftLeg 43.253069 -0.000000 -0.000000
LeftFoot -5.118136 54.698959 -7.095768
LeftToeBase 19.230805 -0.000000 -0.000000
RightUpLeg -97.759986 -39.857005 11.519194
RightLeg -7.288188 -0.000000 0.000000
RightFoot -3.966978 -42.825388 8.712772
RightToeBase 5.333454 -0.000000 -0.000000
718
root 16.781257 10.001778 -20.654856 -190.543429 32.131105 -203.861574
Spine 48.189990 -20.548582 -8.290172
Head 1.306038 -26.688745 12.453805
LeftShoulder 17.524806 -35.496580 1.625177
LeftArm 26.408527 40.158151 -67.447060
LeftForeArm -22.538547 0.000000 14.857582
LeftHand -9.986701 -0.000000 7.488285
LeftHandThumb1 -26.253704 0.000000 33.147579
RightShoulder -2.547933 -10.612289 11.381162
RightArm 29.316780 -8.279693 63.328337
RightForeArm -37.864610 -0.000000 33.942780
RightHand -5.660526 -0.000000 -27.827236
RightHandThumb1 -24.326973 -0.000000 -32.862282
LeftUpLeg 18.571351 -7.399492 33.684569
LeftLeg 43.032481 -0.000000 -0.000000
LeftFoot -4.757684 54.614258 -6.793819
LeftToeBase 19.055707 -0.000000 -0.000000
RightUpLeg -97.829980 -39.910780 11.678083
RightLeg -7.288808 -0.000000 0.000000
RightFoot -3.190476 -43.065042 8.197891
RightToeBase 4.382527 -0.000000 -0.000000
719
root 16.799585 10.014744 -20.656718 -190.329896 32.124142 -203.720312
Spine 48.098214 -20.623429 -8.152146
Head 1.505988 -26.818446 12.491385
LeftShoulder 17.602761 -35.509199 1.654347
LeftArm 26.268359 40.113418 -67.586624
LeftForeArm -22.516285 0.000000 14.850763
LeftHand -9.953786 0.000000 7.525539
LeftHandThumb1 -26.253704 0.000000 33.147579
RightShoulder -2.529215 -10.467738 11.478655
RightArm 29.208333 -8.321776 63.213412
RightForeArm -37.724346 -0.000000 33.951486
RightHand -5.733562 -0.000000 -27.618986
RightHandThumb1 -24.326973 -0.000000 -32.862282
LeftUpLeg 18.541095 -7.377129 33.809254
LeftLeg 42.817900 -0.000000 -0.000000
LeftFoot -4.252737 54.595490 -6.287997
LeftToeBase 19.016659 -0.000000 -0.000000
RightUpLeg -97.831272 -39.978730 11.640074
RightLeg -7.190150 -0.000000 0.000000
RightFoot -2.045015 -43.207942 7.360018
RightToeBase 4.179117 -0.000000 -0.000000
720
root 16.821375 10.026296 -20.653071 -190.058690 32.133208 -203.523087
Spine 47.985278 -20.705622 -7.964924
Head 1.605304 -26.665297 12.546027
LeftShoulder 17.651133 -35.529977 1.677003
LeftArm 26.131412 40.085747 -67.717211
LeftForeArm -22.446265 -0.000000 14.856944
LeftHand -9.959300 -0.000000 7.570556
LeftHandThumb1 -26.253704 0.000000 33.147579
RightShoulder -2.455050 -10.373094 11.559709
RightArm 29.099000 -8.286605 63.127636
RightForeArm -37.689289 -0.000000 33.990035
RightHand -5.813962 -0.000000 -27.371900
RightHandThumb1 -24.326973 -0.000000 -32.862282
LeftUpLeg 18.490498 -7.366981 33.966517
LeftLeg 42.630089 -0.000000 -0.000000
LeftFoot -3.809182 54.548682 -5.818521
LeftToeBase 19.051459 -0.000000 -0.000000
RightUpLeg -97.671561 -40.025635 11.452432
RightLeg -7.148704 -0.000000 0.000000
RightFoot -0.686901 -43.593632 6.604391
RightToeBase 3.469074 -0.000000 -0.000000
721
root 16.842107 10.035406 -20.654299 -189.812669 32.140383 -203.388357
Spine 47.845551 -20.761487 -7.820951
Head 1.767108 -26.736323 12.579277
LeftShoulder 17.711830 -35.531683 1.695157
LeftArm 25.973500 40.078680 -67.837960
LeftForeArm -22.347649 -0.000000 14.925389
LeftHand -9.979099 -0.000000 7.631616
LeftHandThumb1 -26.253704 0.000000 33.147579
RightShoulder -2.423866 -10.444746 11.680688
RightArm 29.115209 -8.216644 62.995076
RightForeArm -37.696961 -0.000000 34.105312
RightHand -6.021100 0.000000 -27.132069
RightHandThumb1 -24.326973 -0.000000 -32.862282
LeftUpLeg 18.445545 -7.374255 34.042577
LeftLeg 42.434244 -0.000000 -0.000000
LeftFoot -3.329987 54.589119 -5.363081
LeftToeBase 19.004520 -0.000000 -0.000000
RightUpLeg -97.638467 -40.059915 11.408483
RightLeg -7.130873 -0.000000 0.000000
RightFoot 0.937266 -43.522731 5.751641
RightToeBase 2.948420 -0.000000 -0.000000
722
root 16.862773 10.040728 -20.656491 -189.576213 32.151010 -203.257934
Spine 47.688648 -20.811656 -7.678937
Head 1.954296 -26.827266 12.596910
LeftShoulder 17.769989 -35.485342 1.712563
LeftArm 25.945512 40.180846 -67.810917
LeftForeArm -22.410738 -0.000000 14.955470
LeftHand -10.013533 -0.000000 7.667462
LeftHandThumb1 -26.253704 0.000000 33.147579
RightShoulder -2.373279 -10.458806 11.774415
RightArm 29.058292 -8.223133 62.858578
RightForeArm -37.651877 0.000000 34.201630
RightHand -6.244069 0.000000 -26.964249
RightHandThumb1 -24.326973 -0.000000 -32.862282
LeftUpLeg 18.403658 -7.409063 34.095253
LeftLeg 42.278815 -0.000000 -0.000000
LeftFoot -2.991577 54.607047 -5.011736
LeftToeBase 18.980940 -0.000000 -0.000000
RightUpLeg -97.593009 -40.084245 11.310286
RightLeg -7.072185 -0.000000 0.000000
RightFoot 2.782218 -43.456218 4.690806
RightToeBase 3.558228 -0.000000 -0.000000
723
root 16.887963 10.039683 -20.655538 -189.250279 32.198945 -203.022534
Spine 47.496601 -20.888077 -7.415128
Head 2.105536 -26.875821 12.522649
LeftShoulder 17.744080 -35.503490 1.709465
LeftArm 25.981487 40.479209 -67.692121
LeftForeArm -22.652894 -0.000000 14.960966
LeftHand -10.040595 -0.000000 7.666108
LeftHandThumb1 -26.253704 0.000000 33.147579
RightShoulder -2.337097 -10.446781 11.801678
RightArm 28.972681 -8.218778 62.784218
RightForeArm -37.623047 -0.000000 34.326670
RightHand -6.370914 -0.000000 -26.678841
RightHandThumb1 -24.326973 -0.000000 -32.862282
LeftUpLeg 18.336450 -7.398289 34.267816
LeftLeg 42.139756 -0.000000 -0.000000
LeftFoot -2.717822 54.624707 -4.725464
LeftToeBase 18.999477 -0.000000 -0.000000
RightUpLeg -97.561696 -40.064138 11.305562
RightLeg -7.014527 -0.000000 0.000000
RightFoot 4.683909 -43.335746 3.805283
RightToeBase 3.988054 -0.000000 -0.000000
